<?xml version="1.0" standalone="no"?>
<!DOCTYPE svg PUBLIC "-//W3C//DTD SVG 20010904//EN" "http://www.w3.org/TR/2001/REC-SVG-20010904/DTD/svg10.dtd">
<!-- Created using Krita: https://krita.org -->
<svg xmlns="http://www.w3.org/2000/svg" 
    xmlns:xlink="http://www.w3.org/1999/xlink"
    xmlns:krita="http://krita.org/namespaces/svg/krita"
    xmlns:sodipodi="http://sodipodi.sourceforge.net/DTD/sodipodi-0.dtd"
    width="240pt"
    height="240pt"
    viewBox="0 0 240 240">
<defs/>
<path id="shape1" transform="matrix(1.12995485259182 0 0 1.12995485259182 56.4397095325576 98.4349910283887)" fill="#1e1e34" fill-rule="evenodd" stroke-opacity="0" stroke="#000000" stroke-width="0" stroke-linecap="square" stroke-linejoin="bevel" d="M89.8283 17.2419C85.7458 -0.305251 38.4543 -3.57429 24.2578 3.45221C10.0613 10.4788 -20.639 31.4035 21.0452 62.0847C43.7124 76.7831 58.7169 87.7626 66.0587 95.0234C112.659 148.8 117.39 154.922 162.449 178.384C162.449 118.994 162.449 81.5213 162.449 65.9658C146.24 54.7457 101.59 49.6553 89.8283 17.2419Z" sodipodi:nodetypes="czccccc"/><path id="shape01" transform="matrix(-1.39731629929237 0 0 1.39731629929237 158.925516883028 69.7305804449765)" fill="#1e1e34" fill-rule="evenodd" stroke-opacity="0" stroke="#000000" stroke-width="0" stroke-linecap="square" stroke-linejoin="bevel" d="M0.443943 47.7295C-0.742782 15.4809 0.490218 1.35699 3.65778 0.116226C6.82535 -1.12454 18.0035 7.53569 27.5138 27.6975C18.8979 29.9299 18.6954 31.8064 13.8334 34.9741C8.97128 38.1419 4.23407 41.9866 0.443943 47.7295Z" sodipodi:nodetypes="czczc"/><path id="shape02" transform="matrix(1.39731629929237 0 0 1.39731629929237 56.6909722874912 72.0266799613964)" fill="#1e1e34" fill-rule="evenodd" stroke-opacity="0" stroke="#000000" stroke-width="0" stroke-linecap="square" stroke-linejoin="bevel" d="M0.389736 40.9635C-0.652087 13.2908 0.430361 1.17094 3.21116 0.106233C5.99196 -0.958472 14.6235 5.92023 29.5318 23.4423C21.9679 25.3579 16.2305 27.0598 11.9621 29.778C7.69373 32.4963 3.71708 36.0355 0.389736 40.9635Z" sodipodi:nodetypes="czczc"/><circle id="shape3" transform="matrix(1.32739532540476 0 0 1.32739532540476 64.426374347021 110.819661374029)" r="11.76" cx="11.76" cy="11.76" fill="#aa33ff" fill-rule="evenodd" stroke-opacity="0" stroke="#000000" stroke-width="0" stroke-linecap="square" stroke-linejoin="bevel"/><ellipse id="shape011" transform="matrix(-3.11227030016215e-16 1.04818274791731 1.40164193640866 2.32743324150532e-16 71.014433971538 112.433774420548)" rx="8.70521403219518" ry="5.82000400141108" cx="8.70521403219518" cy="5.82000400141108" fill="#000000" fill-rule="evenodd" stroke-opacity="0" stroke="#000000" stroke-width="0" stroke-linecap="square" stroke-linejoin="bevel"/><circle id="shape04" transform="matrix(1.32739532540476 0 0 1.32739532540476 108.203344397728 108.132526085641)" r="11.76" cx="11.76" cy="11.76" fill="#aa33ff" fill-rule="evenodd" stroke-opacity="0" stroke="#000000" stroke-width="0" stroke-linecap="square" stroke-linejoin="bevel"/><ellipse id="shape012" transform="matrix(-3.11227030016215e-16 1.04818274791731 1.40164193640866 2.32743324150532e-16 114.272438265949 110.111323259044)" rx="8.70521403219518" ry="5.82000400141108" cx="8.70521403219518" cy="5.82000400141108" fill="#000000" fill-rule="evenodd" stroke-opacity="0" stroke="#000000" stroke-width="0" stroke-linecap="square" stroke-linejoin="bevel"/>
</svg>
