<?xml version="1.0" standalone="no"?>
<!DOCTYPE svg PUBLIC "-//W3C//DTD SVG 20010904//EN" "http://www.w3.org/TR/2001/REC-SVG-20010904/DTD/svg10.dtd">
<!-- Created using Krita: https://krita.org -->
<svg xmlns="http://www.w3.org/2000/svg" 
    xmlns:xlink="http://www.w3.org/1999/xlink"
    xmlns:krita="http://krita.org/namespaces/svg/krita"
    xmlns:sodipodi="http://sodipodi.sourceforge.net/DTD/sodipodi-0.dtd"
    width="237.6pt"
    height="57.6pt"
    viewBox="0 0 237.6 57.6">
<defs/>
<ellipse id="shape0" transform="matrix(2.63016144816004 0 0 2.63016144816004 170.296756879932 18.5647484443816)" rx="8.56942500960187" ry="5.42250304334758" cx="8.56942500960187" cy="5.42250304334758" fill="#1e1e34" fill-rule="evenodd" stroke-opacity="0" stroke="#000000" stroke-width="0" stroke-linecap="square" stroke-linejoin="bevel"/><path id="shape1" transform="matrix(2.60637023040915 0.352963830192749 -0.352963830192749 2.60637023040915 79.7631711299643 -1.27493335759542)" fill="#1e1e34" fill-rule="evenodd" stroke-opacity="0" stroke="#000000" stroke-width="0" stroke-linecap="square" stroke-linejoin="bevel" d="M3.97312 18.8148C15.3862 20.9685 38.0566 16.4146 41.2506 12.3595C36.6089 10.1513 36.9387 8.99586 36.676 5.49C31.6702 5.41165 -13.4289 -13.2999 3.97312 18.8148Z" sodipodi:nodetypes="cccc"/><path id="shape2" transform="matrix(-2.63016144816004 0 0 2.63016144816004 79.781734751203 13.2524374100863)" fill="#1e1e34" fill-rule="evenodd" stroke-opacity="0" stroke="#000000" stroke-width="0" stroke-linecap="square" stroke-linejoin="bevel" d="M0.387639 0C0.621719 0.714222 0.619106 2.2407 0.5623 3.5757C0.505494 4.9107 0.287644 5.27548 0 5.91126C9.54349 11.3793 19.8976 12.9692 27.5948 8.43624C30.6905 6.78621 31.2393 3.88557 26.6058 4.08624C18.6076 7.12224 8.80369 5.091 0.387639 0Z" sodipodi:nodetypes="czcccc"/><path id="shape02" transform="matrix(5.46234950809422 -0.324965773365975 0.324965773365975 5.46234950809422 155.860754271292 12.3919890831574)" fill="#1e1e34" fill-rule="evenodd" stroke-opacity="0" stroke="#000000" stroke-width="0" stroke-linecap="square" stroke-linejoin="bevel" d="M3.057 3.02075C-0.381115 0.57521 -0.919173 -0.385435 1.44283 0.138818C3.29876 0.482638 4.2389 0.869543 4.87319 1.17444C5.39947 1.42741 5.7152 1.62393 6.16878 1.69253C5.17474 1.86227 4.55513 2.00639 4.30996 2.12487C4.0648 2.24336 3.64714 2.54199 3.057 3.02075Z" sodipodi:nodetypes="cccczc"/><path id="shape01" transform="matrix(2.63016144816004 0 0 2.63016144816004 155.387295968337 34.4783163834336)" fill="#1e1e34" fill-rule="evenodd" stroke-opacity="0" stroke="#000000" stroke-width="0" stroke-linecap="square" stroke-linejoin="bevel" d="M4.12076 0C4.71484 0.714222 2.37348 3.40383 2.31667 4.73883C2.25987 6.07383 0.287644 6.44422 0 7.08C10.1735 8.093 14.6539 8.3205 25.7261 7.7475C30.0818 8.03247 31.7556 4.68183 27.1221 3.9375C14.3539 3.3285 11.0518 5.136 4.12076 0Z" sodipodi:nodetypes="czcccc"/><circle id="shape03" transform="matrix(0.612800829359199 0 0 0.612800829359199 184.466683130845 24.8323493512106)" r="10.4754037997001" cx="10.4754037997001" cy="10.4754037997001" fill="#aa33ff" fill-rule="evenodd" stroke-opacity="0" stroke="#000000" stroke-width="0" stroke-linecap="square" stroke-linejoin="bevel"/><ellipse id="shape012" transform="matrix(-1.36069118052794e-16 0.534167692464032 0.612800829359199 1.18609054236891e-16 189.678730359094 27.2854982079107)" rx="7.66177378583781" ry="4.86754633765314" cx="7.66177378583781" cy="4.86754633765314" fill="#000000" fill-rule="evenodd" stroke-opacity="0" stroke="#000000" stroke-width="0" stroke-linecap="square" stroke-linejoin="bevel"/><path id="shape021" transform="matrix(-5.46234950809422 -0.324965773365975 -0.324965773365975 5.46234950809422 206.902760475248 13.7756118681563)" fill="#1e1e34" fill-rule="evenodd" stroke-opacity="0" stroke="#000000" stroke-width="0" stroke-linecap="square" stroke-linejoin="bevel" d="M0 1.46355C1.10423 -0.0196002 3.07608 -0.164953 3.06245 0.117655C3.04882 0.400263 3.38319 0.736754 2.90062 1.1474C2.88913 1.15049 1.64737 1.19465 1.30825 1.25338C0.969125 1.31211 0.0388626 1.46961 0 1.46355Z" sodipodi:nodetypes="czczc"/><circle id="shape031" transform="matrix(0.612800829359199 0 0 0.612800829359199 200.16117624398 23.9426908864346)" r="10.4754037997001" cx="10.4754037997001" cy="10.4754037997001" fill="#aa33ff" fill-rule="evenodd" stroke-opacity="0" stroke="#000000" stroke-width="0" stroke-linecap="square" stroke-linejoin="bevel"/><ellipse id="shape0121" transform="matrix(-1.36069118052794e-16 0.534167692464032 0.612800829359199 1.18609054236891e-16 205.373223472229 26.5099985896948)" rx="7.66177378583781" ry="4.86754633765314" cx="7.66177378583781" cy="4.86754633765314" fill="#000000" fill-rule="evenodd" stroke-opacity="0" stroke="#000000" stroke-width="0" stroke-linecap="square" stroke-linejoin="bevel"/>
</svg>
