<?xml version="1.0" standalone="no"?>
<!DOCTYPE svg PUBLIC "-//W3C//DTD SVG 20010904//EN" "http://www.w3.org/TR/2001/REC-SVG-20010904/DTD/svg10.dtd">
<!-- Created using Krita: https://krita.org -->
<svg xmlns="http://www.w3.org/2000/svg" 
    xmlns:xlink="http://www.w3.org/1999/xlink"
    xmlns:krita="http://krita.org/namespaces/svg/krita"
    xmlns:sodipodi="http://sodipodi.sourceforge.net/DTD/sodipodi-0.dtd"
    width="240pt"
    height="240pt"
    viewBox="0 0 240 240">
<defs/>
<path id="shape021" transform="matrix(2.08048346090085 0 0 2.08048346090085 21.4897153636352 25.7053974629461)" fill="#1e1e34" fill-rule="evenodd" stroke-opacity="0" stroke="#000000" stroke-width="0" stroke-linecap="square" stroke-linejoin="bevel" d="M0.513549 45.514C-0.859244 17.8413 0.567079 1.16476 4.23129 0.100056C7.8955 -0.964649 19.2691 6.43316 38.9135 23.9552C28.9467 25.8708 21.9923 28.1784 16.3679 30.8966C10.7435 33.6149 4.89793 40.586 0.513549 45.514Z" sodipodi:nodetypes="czczc"/><path id="shape0" transform="matrix(2.08048346090085 0 0 2.08048346090085 20.6535541150436 74.6494467695233)" sodipodi:type="arc" sodipodi:rx="47.9399937439078" sodipodi:ry="27.6599955730758" sodipodi:cx="47.9399937439078" sodipodi:cy="27.6599955730758" sodipodi:start="6.28318530717959" sodipodi:end="3.5527136788005e-15" sodipodi:open="true" d="M95.88 27.66C95.88 12.3838 74.4165 5.89489e-14 47.94 0C21.4635 -5.89489e-14 1.03791e-13 12.3838 0 27.66C-1.03791e-13 42.9362 21.4635 55.32 47.94 55.32C74.4165 55.32 95.88 42.9362 95.88 27.66Z" fill="#1e1e34" fill-rule="evenodd" stroke-opacity="0" stroke="#000000" stroke-width="0" stroke-linecap="square" stroke-linejoin="bevel"/><ellipse id="shape01" transform="translate(31.739998830148, 83.139936434741)" rx="38.5793471100716" ry="34.8206360065499" cx="38.5793471100716" cy="34.8206360065499" fill="none" stroke="#328b7b" stroke-width="7.68" stroke-linecap="square" stroke-linejoin="bevel"/><path id="shape011" transform="matrix(-2.08048346090085 0 0 2.08048346090085 219.050535231854 25.2788791186748)" fill="#1e1e34" fill-rule="evenodd" stroke-opacity="0" stroke="#000000" stroke-width="0" stroke-linecap="square" stroke-linejoin="bevel" d="M0.527525 45.7698C-0.845268 18.0971 0.494536 1.16101 4.15875 0.0963062C7.82296 -0.968399 19.1966 6.77549 38.841 24.2976C28.8742 26.2132 21.9867 28.6741 16.3623 31.3924C10.7379 34.1107 4.91191 40.8418 0.527525 45.7698Z" sodipodi:nodetypes="czczc"/><ellipse id="shape02" transform="translate(129.690592524154, 85.17936399345)" rx="38.5793471100716" ry="34.8206360065499" cx="38.5793471100716" cy="34.8206360065499" fill="none" stroke="#328b7b" stroke-width="7.68" stroke-linecap="square" stroke-linejoin="bevel"/><circle id="shape1" transform="matrix(2.08048346090085 0 0 2.08048346090085 51.6111307817499 95.23939430118)" r="11.76" cx="11.76" cy="11.76" fill="#aa33ff" fill-rule="evenodd" stroke-opacity="0" stroke="#000000" stroke-width="0" stroke-linecap="square" stroke-linejoin="bevel"/><ellipse id="shape0111" transform="matrix(-4.6196012812879e-16 2.08048346090085 2.08048346090085 4.6196012812879e-16 63.5696930629201 96.669182669816)" rx="8.70521403219518" ry="5.82000400141108" cx="8.70521403219518" cy="5.82000400141108" fill="#000000" fill-rule="evenodd" stroke-opacity="0" stroke="#000000" stroke-width="0" stroke-linecap="square" stroke-linejoin="bevel"/><circle id="shape03" transform="matrix(2.08048346090085 0 0 2.08048346090085 138.018491852408 96.387821411546)" r="11.76" cx="11.76" cy="11.76" fill="#aa33ff" fill-rule="evenodd" stroke-opacity="0" stroke="#000000" stroke-width="0" stroke-linecap="square" stroke-linejoin="bevel"/><ellipse id="shape012" transform="matrix(-4.6196012812879e-16 2.08048346090085 2.08048346090085 4.6196012812879e-16 149.977054133579 97.817609780183)" rx="8.70521403219518" ry="5.82000400141108" cx="8.70521403219518" cy="5.82000400141108" fill="#000000" fill-rule="evenodd" stroke-opacity="0" stroke="#000000" stroke-width="0" stroke-linecap="square" stroke-linejoin="bevel"/><path id="shape2" transform="matrix(1 0 0 -1 206.189986153623 113.731282381785)" fill="none" stroke="#328b7b" stroke-width="6.24" stroke-linecap="square" stroke-linejoin="bevel" d="M0 0C11.4976 11.6363 18.0247 -0.196809 21.1488 5.8706C21.1139 9.8818 12.6954 14.0071 0 0Z" sodipodi:nodetypes="ccc"/><path id="shape3" transform="translate(108.539996873872, 105.347470234128)" fill="none" stroke="#328b7b" stroke-width="7.68" stroke-linecap="square" stroke-linejoin="bevel" d="M0 2.85374C2.54414 0.966402 6.11813 0.015213 10.722 0.000175521C15.3258 -0.0148619 18.9118 0.936328 21.48 2.85374" sodipodi:nodetypes="czc"/><path id="shape05" transform="translate(44.9032368171093, 177.014557765926)" fill="#1e1e34" fill-rule="evenodd" stroke-opacity="0" stroke="#000000" stroke-width="0" stroke-linecap="square" stroke-linejoin="bevel" d="M2.47451 156.311C-3.86268 142.117 1.97223 90.0136 19.9792 0C44.0125 5.57062 105.219 5.81064 127.33 0.72C145.694 90.2536 151.707 142.117 145.37 156.311C141.86 164.174 6.23832 164.742 2.47451 156.311Z" sodipodi:nodetypes="ccccc"/><path id="shape21" transform="matrix(-1 0 0 -1 31.7643899494981 114.052826887895)" fill="none" stroke="#328b7b" stroke-width="6.24" stroke-linecap="square" stroke-linejoin="bevel" d="M0 0C11.4976 11.6363 18.0247 -0.196809 21.1488 5.8706C21.1139 9.8818 12.6954 14.0071 0 0Z" sodipodi:nodetypes="ccc"/>
</svg>
