<?xml version="1.0" standalone="no"?>
<!DOCTYPE svg PUBLIC "-//W3C//DTD SVG 20010904//EN" "http://www.w3.org/TR/2001/REC-SVG-20010904/DTD/svg10.dtd">
<!-- Created using Krita: https://krita.org -->
<svg xmlns="http://www.w3.org/2000/svg" 
    xmlns:xlink="http://www.w3.org/1999/xlink"
    xmlns:krita="http://krita.org/namespaces/svg/krita"
    xmlns:sodipodi="http://sodipodi.sourceforge.net/DTD/sodipodi-0.dtd"
    width="240pt"
    height="240pt"
    viewBox="0 0 240 240">
<defs/>
<ellipse id="shape0" transform="matrix(1.23661250366534 0 0 1.23661250366534 14.5443201835578 38.82570704396)" rx="47.9399937439078" ry="27.6599955730758" cx="47.9399937439078" cy="27.6599955730758" fill="#1e1e34" fill-rule="evenodd" stroke-opacity="0" stroke="#000000" stroke-width="0" stroke-linecap="square" stroke-linejoin="bevel"/><path id="shape01" transform="matrix(-1.23661250366534 0 0 1.23661250366534 130.998634453363 12.0962698656398)" fill="#1e1e34" fill-rule="evenodd" stroke-opacity="0" stroke="#000000" stroke-width="0" stroke-linecap="square" stroke-linejoin="bevel" d="M0.513549 40.9635C-0.859244 13.2908 0.567079 1.17094 4.23129 0.106233C7.8955 -0.958472 19.2691 5.92023 38.9135 23.4423C28.9467 25.3579 21.6267 27.2998 16.0023 30.018C10.3779 32.7363 4.89793 36.0355 0.513549 40.9635Z" sodipodi:nodetypes="czczc"/><path id="shape1" transform="matrix(1.23661250366534 0 0 1.23661250366534 10.7356737499372 94.7973978305882)" fill="#1e1e34" fill-rule="evenodd" stroke-opacity="0" stroke="#000000" stroke-width="0" stroke-linecap="square" stroke-linejoin="bevel" d="M2.72879 84.0152C-3.65739 72.9223 1.37855 42.8794 15.6048 0.679275C26.9548 6.33257 74.0432 5.65331 85.1532 0C99.6193 42.2001 105.115 72.9223 98.7288 84.0152C96.3704 88.1117 92.6739 100.769 51.311 99.8951C9.94823 99.0218 5.25739 88.4074 2.72879 84.0152Z" sodipodi:nodetypes="ccczzc"/><path id="shape2" transform="matrix(1.23661250366534 0 0 1.23661250366534 131.778688990091 179.308548497083)" fill="#1e1e34" fill-rule="evenodd" stroke-opacity="0" stroke="#000000" stroke-width="0" stroke-linecap="square" stroke-linejoin="bevel" d="M0 14.9737C0.864992 14.4187 1.28613 1.69501 1.07112 0C7.73074 2.67114 18.806 3.8503 24.2046 3.3434C32.3026 2.58305 66.1442 -2.97408 66.1172 23.227C66.0886 50.9319 10.0952 37.7382 12.7172 27.517C15.3392 17.2958 49.999 33.7394 51.6272 24.457C53.54 13.5524 33.8537 15.7406 26.5994 17.2412C21.7633 18.2415 9.33865 16.9035 0 14.9737Z" sodipodi:nodetypes="cczszszc"/><path id="shape02" transform="matrix(1.23661250366534 0 0 1.23661250366534 16.9584167781058 12.3284071957552)" fill="#1e1e34" fill-rule="evenodd" stroke-opacity="0" stroke="#000000" stroke-width="0" stroke-linecap="square" stroke-linejoin="bevel" d="M0.513549 40.9635C-0.859244 13.2908 0.567079 1.17094 4.23129 0.106233C7.8955 -0.958472 19.2691 5.92023 38.9135 23.4423C28.9467 25.3579 21.3867 27.0598 15.7623 29.778C10.1379 32.4963 4.89793 36.0355 0.513549 40.9635Z" sodipodi:nodetypes="czczc"/><circle id="shape3" transform="matrix(1.23661250366534 0 0 1.23661250366534 32.945103995918 54.0360414111863)" r="11.76" cx="11.76" cy="11.76" fill="#aa33ff" fill-rule="evenodd" stroke-opacity="0" stroke="#000000" stroke-width="0" stroke-linecap="square" stroke-linejoin="bevel"/><ellipse id="shape011" transform="matrix(-2.74583134821723e-16 1.23661250366534 1.23661250366534 2.74583134821723e-16 40.0531189937169 58.4997625997998)" rx="8.70521403219518" ry="5.82000400141108" cx="8.70521403219518" cy="5.82000400141108" fill="#000000" fill-rule="evenodd" stroke-opacity="0" stroke="#000000" stroke-width="0" stroke-linecap="square" stroke-linejoin="bevel"/><ellipse id="shape03" transform="matrix(1.23301393935266 0.0942714674941246 -0.0942714674941246 1.23301393935266 26.5859346831903 201.140576884094)" rx="15.4418374826814" ry="8.84399709198978" cx="15.4418374826814" cy="8.84399709198978" fill="#1e1e34" fill-rule="evenodd" stroke-opacity="0" stroke="#000000" stroke-width="0" stroke-linecap="square" stroke-linejoin="bevel"/><circle id="shape04" transform="matrix(1.23661250366534 0 0 1.23661250366534 84.4895844590884 54.7186516558322)" r="11.76" cx="11.76" cy="11.76" fill="#aa33ff" fill-rule="evenodd" stroke-opacity="0" stroke="#000000" stroke-width="0" stroke-linecap="square" stroke-linejoin="bevel"/><ellipse id="shape012" transform="matrix(-2.74583134821723e-16 1.23661250366534 1.23661250366534 2.74583134821723e-16 91.5975994568874 59.1823728444457)" rx="8.70521403219518" ry="5.82000400141108" cx="8.70521403219518" cy="5.82000400141108" fill="#000000" fill-rule="evenodd" stroke-opacity="0" stroke="#000000" stroke-width="0" stroke-linecap="square" stroke-linejoin="bevel"/><ellipse id="shape05" transform="matrix(-1.23301393935266 0.0942714674941254 0.0942714674941254 1.23301393935266 121.211382600708 201.465969711694)" rx="15.0593553723676" ry="8.84399709198978" cx="15.0593553723676" cy="8.84399709198978" fill="#1e1e34" fill-rule="evenodd" stroke-opacity="0" stroke="#000000" stroke-width="0" stroke-linecap="square" stroke-linejoin="bevel"/>
</svg>
